<svg version="1.1" xmlns="http://www.w3.org/2000/svg" viewBox="0 0 1012.8980974810702 1118.0375147655761" width="2025.7961949621404" height="2236.0750295311523">
  <!-- svg-source:excalidraw -->
  
  <defs>
    <style class="style-fonts">
      @font-face {
        font-family: "Virgil";
        src: url("https://excalidraw.com/Virgil.woff2");
      }
      @font-face {
        font-family: "Cascadia";
        src: url("https://excalidraw.com/Cascadia.woff2");
      }
      @font-face {
        font-family: "Assistant";
        src: url("https://excalidraw.com/Assistant-Regular.woff2");
      }
    </style>
    
  </defs>
  <rect x="0" y="0" width="1012.8980974810702" height="1118.0375147655761" fill="#ffffff"></rect><g transform="translate(260.2126085718419 15.328360931946378) rotate(0 211.13999938964844 51.00000000000001)"><text x="0" y="0" font-family="Virgil, Segoe UI Emoji" font-size="81.60000000000001px" fill="#1e1e1e" text-anchor="start" style="white-space: pre;" direction="ltr" dominant-baseline="text-before-edge">Formatting</text></g><g stroke-linecap="round"><g transform="translate(255.93639735899774 96.89232902151966) rotate(0 210.42014452997546 8.150076020527223)"><path d="M-1.57 -2.71 C35.57 -2.65, 151.45 -5.11, 221.89 -2.16 C292.32 0.78, 388.31 12.16, 421.04 14.95 M2.77 2 C39.72 2.57, 150.82 -2.26, 220.25 0.29 C289.68 2.84, 386.47 14.67, 419.34 17.32" stroke="#1e1e1e" stroke-width="2" fill="none"></path></g></g><mask></mask><g transform="translate(559.1626430899366 782.9483152204957) rotate(0 153.47322771856147 39.8094065890661)"><text x="0" y="0" font-family="Virgil, Segoe UI Emoji" font-size="63.69505054250578px" fill="#1e1e1e" text-anchor="start" style="white-space: pre;" direction="ltr" dominant-baseline="text-before-edge">€1,234.56</text></g><g transform="translate(646.9994879850499 861.3944106101499) rotate(0 63.65899031200013 15.953032951421562)"><text x="63.658990312000164" y="0" font-family="Virgil, Segoe UI Emoji" font-size="25.524852722274492px" fill="#1e1e1e" text-anchor="middle" style="white-space: pre;" direction="ltr" dominant-baseline="text-before-edge">🇮🇪 Ireland</text></g><g transform="translate(205.2450345039531 147.9824087975863) rotate(0 275.4822998046875 35.83648803359)"><text x="0" y="0" font-family="Virgil, Segoe UI Emoji" font-size="57.338380853744006px" fill="#1971c2" text-anchor="start" style="white-space: pre;" direction="ltr" dominant-baseline="text-before-edge">Amount w/ Currency</text></g><g transform="translate(452.0832617396827 192.73004592056043) rotate(0 25.597466741372727 51.19493249714226)"><text x="0" y="0" font-family="Virgil, Segoe UI Emoji" font-size="81.91189199542764px" fill="#1e1e1e" text-anchor="start" style="white-space: pre;" direction="ltr" dominant-baseline="text-before-edge">+</text></g><g transform="translate(191.65787326683335 253.84728913348624) rotate(0 296.78350830078125 35.83648803359)"><text x="0" y="0" font-family="Virgil, Segoe UI Emoji" font-size="57.338380853744006px" fill="#2f9e44" text-anchor="start" style="white-space: pre;" direction="ltr" dominant-baseline="text-before-edge">Language and Locale</text></g><g stroke-linecap="round" transform="translate(10 10) rotate(0 496.4490487405351 549.0187573827881)"><path d="M32 0 C393.55 -4.88, 756.87 -6.46, 960.9 0 M32 0 C368.02 -6.23, 703.7 -5.74, 960.9 0 M960.9 0 C978.28 0.26, 992.71 13.91, 992.9 32 M960.9 0 C982.8 -0.65, 992.62 9.44, 992.9 32 M992.9 32 C986.9 293.89, 986.54 551.78, 992.9 1066.04 M992.9 32 C985.59 431.15, 987.01 829.12, 992.9 1066.04 M992.9 1066.04 C990.32 1086.7, 980.58 1094.21, 960.9 1098.04 M992.9 1066.04 C993.51 1086.95, 984.04 1098.04, 960.9 1098.04 M960.9 1098.04 C691.54 1094.9, 419.83 1094.43, 32 1098.04 M960.9 1098.04 C629.08 1102.01, 296.51 1102.62, 32 1098.04 M32 1098.04 C12.95 1094.94, 1.75 1087.69, 0 1066.04 M32 1098.04 C13.49 1099.76, 1.37 1091.58, 0 1066.04 M0 1066.04 C-1.4 833.23, 1.17 597.31, 0 32 M0 1066.04 C3.62 778.33, 3.75 488.36, 0 32 M0 32 C2.63 10.19, 7.56 2.47, 32 0 M0 32 C-0.26 6.41, 13.54 -2.42, 32 0" stroke="#868e96" stroke-width="4" fill="none"></path></g><g transform="translate(158.99277699265326 391.65796549924397) rotate(0 330.1768559312367 38.53605074377518)"><text x="330.17685593123673" y="0" font-family="Virgil, Segoe UI Emoji" font-size="61.65768119004028px" fill="#f08c00" text-anchor="middle" style="white-space: pre;" direction="ltr" dominant-baseline="text-before-edge">LOCAL FORMATTING</text></g><g transform="translate(117.9277704416354 605.3274664218568) rotate(0 153.4732318651769 39.8094065890661)"><text x="0" y="0" font-family="Virgil, Segoe UI Emoji" font-size="63.69505054250576px" fill="#1e1e1e" text-anchor="start" style="white-space: pre;" direction="ltr" dominant-baseline="text-before-edge">€1.234,56</text></g><g transform="translate(207.3726879575829 683.773561811511) rotate(0 62.050917691166205 15.953032951421562)"><text x="62.05091769116621" y="0" font-family="Virgil, Segoe UI Emoji" font-size="25.524852722274492px" fill="#1e1e1e" text-anchor="middle" style="white-space: pre;" direction="ltr" dominant-baseline="text-before-edge">🇬🇷 Greece</text></g><g transform="translate(537.3921817191826 605.1777156008368) rotate(0 176.5945302698176 39.8094065890661)"><text x="0" y="0" font-family="Virgil, Segoe UI Emoji" font-size="63.69505054250577px" fill="#1e1e1e" text-anchor="start" style="white-space: pre;" direction="ltr" dominant-baseline="text-before-edge">1 234,56 €</text></g><g transform="translate(629.0705280213117 683.6238109904912) rotate(0 59.817488904985 15.953032951421562)"><text x="59.81748890498495" y="0" font-family="Virgil, Segoe UI Emoji" font-size="25.524852722274492px" fill="#1e1e1e" text-anchor="middle" style="white-space: pre;" direction="ltr" dominant-baseline="text-before-edge">🇫🇷 France</text></g><g transform="translate(113.71823971758909 775.8149142811229) rotate(0 169.39698439112874 39.8094065890661)"><text x="0" y="0" font-family="Virgil, Segoe UI Emoji" font-size="63.69505054250576px" fill="#1e1e1e" text-anchor="start" style="white-space: pre;" direction="ltr" dominant-baseline="text-before-edge">1.234,56 €</text></g><g transform="translate(194.9952051970056 854.2610096707772) rotate(0 70.21886972769755 15.953032951421562)"><text x="70.21886972769761" y="0" font-family="Virgil, Segoe UI Emoji" font-size="25.524852722274495px" fill="#1e1e1e" text-anchor="middle" style="white-space: pre;" direction="ltr" dominant-baseline="text-before-edge">🇩🇪 Germany</text></g><g transform="translate(458.0109697938001 300.5202649058209) rotate(0 23.55242384778353 47.715609142982785)"><text x="0" y="0" font-family="Virgil, Segoe UI Emoji" font-size="76.34497462877249px" fill="#1e1e1e" text-anchor="start" style="white-space: pre;" direction="ltr" dominant-baseline="text-before-edge">=</text></g><g transform="translate(407.15980232243055 722.3570253693402) rotate(0 78.95999908447266 17.5)"><text x="78.95999908447266" y="0" font-family="Virgil, Segoe UI Emoji" font-size="28px" fill="#fa5252" text-anchor="middle" style="white-space: pre;" direction="ltr" dominant-baseline="text-before-edge">(Not typos)</text></g><g stroke-linecap="round"><g transform="translate(88.1581128894652 474.24145719125374) rotate(0 416.35902804775446 4.639097805545987)"><path d="M1 2.06 C71.02 1.3, 282.85 -3.1, 421.63 -2.09 C560.41 -1.09, 765.03 6.64, 833.68 8.1 M-1.9 0.71 C67.56 1.46, 280.05 -1.25, 419.1 0.4 C558.15 2.04, 763.15 9.32, 832.39 10.56" stroke="#343a40" stroke-width="4" fill="none"></path></g></g><mask></mask><g transform="translate(395.192071970562 488.15875060789165) rotate(0 94.24800109863281 22.5)"><text x="94.24800109863281" y="0" font-family="Virgil, Segoe UI Emoji" font-size="36px" fill="#343a40" text-anchor="middle" style="white-space: pre;" direction="ltr" dominant-baseline="text-before-edge">EXAMPLES</text></g><g transform="translate(62.635602678305304 976.1085997177814) rotate(0 443.8134460449219 57.15121369898151)"><text x="443.8134460449219" y="0" font-family="Virgil, Segoe UI Emoji" font-size="45.7209709591852px" fill="#343a40" text-anchor="middle" style="white-space: pre;" direction="ltr" dominant-baseline="text-before-edge">Formatting money (correctly) is often</text><text x="443.8134460449219" y="57.1512136989815" font-family="Virgil, Segoe UI Emoji" font-size="45.7209709591852px" fill="#343a40" text-anchor="middle" style="white-space: pre;" direction="ltr" dominant-baseline="text-before-edge">more difficult than (backend) payments!</text></g><g stroke-linecap="round"><g transform="translate(76.38675859409886 925.7959814772926) rotate(180 416.35902804775446 4.639097805545987)"><path d="M-2.15 2.29 C67.63 1.86, 281.22 -2.55, 420.68 -0.94 C560.14 0.68, 766.14 10.66, 834.59 11.97 M1.87 1.07 C72.41 0.88, 287.63 1.05, 426.28 2.19 C564.93 3.33, 766.31 6.89, 833.8 7.91" stroke="#343a40" stroke-width="4" fill="none"></path></g></g><mask></mask></svg>